<?xml version="1.0" encoding="UTF-8"?>
<svg width="125" height="125" version="1.1" viewBox="0 0 33.073 33.073" xmlns="http://www.w3.org/2000/svg" xmlns:xlink="http://www.w3.org/1999/xlink">
<g transform="matrix(.26458 0 0 .26458 -132.15 -97.347)">
<g transform="translate(-55.191 32.068)" stroke-width=".83334">
<path d="m673.57 371.66v53.399c-3e-3 3.2534-1.7542 6.2534-4.5842 7.8575l-47.383 26.782c-2.7584 1.5475-6.1234 1.5475-8.8825 0l-47.383-26.782c-2.83-1.6033-4.5817-4.6034-4.585-7.8575v-53.399c3e-3 -3.2525 1.7542-6.2542 4.585-7.8575l47.383-26.783c2.7592-1.5475 6.1242-1.5475 8.8825 0l47.383 26.783c2.83 1.6033 4.5808 4.6042 4.5842 7.8575z" fill="#fcfcfc"/>
<path d="m668.05 374.27v48.178c-3e-3 2.9342-1.5825 5.6425-4.1367 7.0892l-42.75 24.163c-2.4883 1.3967-5.525 1.3967-8.0142 0l-42.751-24.163c-2.5533-1.4458-4.1325-4.1542-4.1358-7.0892v-48.178c3e-3 -2.935 1.5817-5.6425 4.1358-7.0892l42.751-24.163c2.4892-1.3967 5.5258-1.3967 8.0142 0l42.75 24.163c2.5533 1.4475 4.1334 4.1542 4.1367 7.0892z" fill="#97b7a4"/>
</g>
<g transform="matrix(.89185 0 0 .89185 100.73 93.95)" fill="none" stroke="#fff">
<g transform="matrix(.85544 0 0 .85544 71.13 48.661)" stroke-width="1.417">
<path d="m570.19 421.17c-1.8751-4.7725-7.6833-11.858-20.999-20.066-1.4452-1.3077-3.3376-2.4372-4.5469-3.3838-6.0291-3.3478-10.018-6.4548-16.661-10.705-9.4931-4.9146-19.611-7.8636-27.745-9.2447-4.1946-0.70512-13.875-1.9524-17.245-1.7679"/>
<path d="m487.08 363.83c-10.538 3.8606-18.253 10.03-27.114 16.175 0.10751 0.40771 8.8288 2.8809 11.448 3.7896 17.677 5.7613 22.852 8.4489 26.086 9.3899 11.288 4.3795 10.066 7.4568 19.142 12.239 8.2554 2.6221 13.683 2.5629 21.246 0.39962 4.6258-2.2675 6.5849-3.3203 11.103-5.1422 0.23054-5.337-2.2342-6.2122-4.539-14.556-1.9998-5.4603-4.5212-10.31-10.48-15.413-8.7075-6.2105-17.594-9.2424-27.812-9.3723-7.583 0.34925-10.937 0.24703-19.08 2.4912z"/>
<path d="m510.79 379.71c-2.2377 3.9039-6.6808 4.1412-10.992 4.5966-2.3798 0.27158-4.0149 0.16626-5.5653 0.16074"/>
<path d="m530.95 389.41c-2.2377 3.9039-7.0572 4.874-11.368 5.3294-2.3798 0.27158-6.7457 0.57877-8.2961 0.57325"/>
<path d="m510.5 379.56c0.0753-1.3194-0.0377-2.6556-0.40131-3.7623-1.2435-2.5384-4.7773-5.6457-7.5928-7.414"/>
<path d="m530.95 389.41c0.0753-1.3194-0.0377-2.6556-0.40131-3.7623-1.2435-2.5384-4.7773-5.6457-7.5928-7.414"/>
</g>
<g transform="translate(-.59015 -3.2368)">
<path d="m555.1 405.63s0.57417-6.0866 0.50571-7.8464c-0.0347-0.69457-0.22716-1.457-0.29344-2.0009-0.6765-2.3658-0.89892-4.156-1.5026-6.9046-1.1552-3.635-2.9638-6.9318-4.6677-9.3326-0.88038-1.2362-3.0082-3.9934-3.905-4.797"/>
<path d="m549.34 372.71c-3.6328-1.6847-7.1359-2.0746-10.922-2.76-0.0757 0.12999 1.5006 2.9544 1.9321 3.8444 3.0063 5.9134 3.6338 7.8972 4.2125 8.9506 1.743 3.9529 0.6582 4.4209 1.7418 7.9175 1.4213 2.7444 2.8055 4.0987 5.2596 5.4612 1.7392 0.595 2.4991 0.82365 4.0986 1.5038 1.4047-1.2884 1.0036-2.131 2.5272-4.8176 0.87307-1.8822 1.4606-3.742 1.2447-6.5328-0.62999-3.7638-2.1072-6.7709-4.6524-9.3817-2.0013-1.8251-2.8218-2.6971-5.4425-4.1855z"/>
</g>
<g>
<path d="m554.51 402.4c-6.4021-0.89699-8.8727 0.11001-10.632 0.17847-0.69457 0.0347-1.457 0.22716-2.0009 0.29344-2.3658 0.6765-4.156 0.89892-6.9046 1.5026-3.635 1.1552-6.9318 2.9638-9.3326 4.6677-1.2362 0.88038-3.9934 3.0082-4.797 3.905"/>
<path d="m518.81 408.84c-1.6847 3.6328-2.0746 7.1359-2.76 10.922 0.12999 0.0757 2.9544-1.5006 3.8444-1.9321 5.9134-3.0063 7.8972-3.6338 8.9506-4.2125 3.9529-1.743 4.4209-0.6582 7.9175-1.7418 2.7444-1.4213 4.0987-2.8055 5.4612-5.2596 0.595-1.7392 0.82365-2.4991 1.5038-4.0986-1.2884-1.4047-2.131-1.0036-4.8176-2.5272-1.8822-0.87307-3.742-1.4606-6.5328-1.2447-3.7638 0.62999-6.7709 2.1072-9.3817 4.6524-1.8251 2.0013-2.6971 2.8218-4.1855 5.4425z"/>
</g>
</g>
</g>
</svg>
