<?xml version="1.0" encoding="UTF-8"?>
<svg width="125" height="125" version="1.1" viewBox="0 0 33.073 33.073" xmlns="http://www.w3.org/2000/svg" xmlns:xlink="http://www.w3.org/1999/xlink">
<defs>
<clipPath id="d" clip-path="url(#a)">
<use width="100%" height="100%" overflow="visible" xlink:href="#b"/>
</clipPath>
<path id="c" d="m496.24 64.309h64.079c3.904 4e-3 7.504 2.105 9.429 5.501l32.138 56.86c1.857 3.31 1.857 7.348 0 10.659l-32.138 56.86c-1.924 3.396-5.524 5.498-9.429 5.502h-64.079c-3.903-4e-3 -7.505-2.105-9.429-5.502l-32.139-56.86c-1.857-3.311-1.857-7.349 0-10.659l32.139-56.86c1.924-3.396 5.526-5.497 9.429-5.501z"/>
<path id="b" d="m499.38 70.928h57.813c3.521 4e-3 6.771 1.899 8.507 4.964l28.995 51.3c1.676 2.986 1.676 6.63 0 9.617l-28.995 51.301c-1.735 3.064-4.985 4.959-8.507 4.963h-57.813c-3.522-4e-3 -6.771-1.898-8.507-4.963l-28.996-51.301c-1.676-2.987-1.676-6.631 0-9.617l28.996-51.3c1.736-3.065 4.984-4.96 8.507-4.964z"/>
</defs>
<g transform="matrix(.26458 0 0 .26458 -146.98 -24.02)">
<g transform="matrix(0 .83334 -.83334 0 727.16 -286.95)">
<path d="m496.24 64.309h64.079c3.904 4e-3 7.504 2.105 9.429 5.501l32.138 56.86c1.857 3.31 1.857 7.348 0 10.659l-32.138 56.86c-1.924 3.396-5.524 5.498-9.429 5.502h-64.079c-3.903-4e-3 -7.505-2.105-9.429-5.502l-32.139-56.86c-1.857-3.311-1.857-7.349 0-10.659l32.139-56.86c1.924-3.396 5.526-5.497 9.429-5.501z" fill="#f9f9f9"/>
<path d="m499.38 70.928h57.813c3.521 4e-3 6.771 1.899 8.507 4.964l28.995 51.3c1.676 2.986 1.676 6.63 0 9.617l-28.995 51.301c-1.735 3.064-4.985 4.959-8.507 4.963h-57.813c-3.522-4e-3 -6.771-1.898-8.507-4.963l-28.996-51.301c-1.676-2.987-1.676-6.631 0-9.617l28.996-51.3c1.736-3.065 4.984-4.96 8.507-4.964z" fill="#d1cac3"/>
</g>
<g transform="matrix(.82934 0 0 .82934 181.03 43.831)">
<clipPath id="a">
<use width="100%" height="100%" overflow="visible" xlink:href="#c"/>
</clipPath>
<clipPath clip-path="url(#a)">
<use width="100%" height="100%" overflow="visible" xlink:href="#b"/>
</clipPath>
<g clip-path="url(#d)">
<path d="m461.96 136.9c10.002 0 22.25 1.397 30.761-3.794 4.405-2.688 6.644-8.003 10.173-11.062 4.97-4.305 8.954-6.095 15.261-6.782 2.891-0.314 16.41-2.018 18.65-2.745 6.218-2.019 7.596-4.325 11.869-8.398 1.986-1.893 9.374-11.56 11.465-13.418 1.961-1.744 4.641-3.836 6.943-4.829 2.935-1.264 7.179-1.608 10.505-1.929 4.271-0.413 8.953-0.251 13.555-0.251" fill="none" stroke="#f9f9f9" stroke-miterlimit="10" stroke-width="1.4173"/>
<path d="m461.24 168.72c13.099 0 26.386 0.457 39.409-0.176 5.262-0.256 10.448-0.466 15.655-0.727 5.991-0.298 9.73-1.833 15.099-4.197 1.342-0.591 2.89-1.454 3.971-2.486 0.568-0.542 6.581-6.737 8.659-9.313 2.506-3.109 13.456-18.275 16.115-20.668 2.502-2.251 7.242-4.853 10.494-5.804 8.558-2.503 14.039-2.5 22.446-2.503" fill="none" stroke="#f9f9f9" stroke-miterlimit="10" stroke-width="1.4173"/>
<path d="m461.64 191.07c6.86-0.23 47.959-0.241 53.296-0.241 3.553 0 14.039 0.241 17.594 0.241 5.44 0 8.694 0.016 12.999-1.776 4.195-1.748 13.76-6.758 17.44-8.8 5.214-2.896 13.808-7.027 19.116-7.768 4.301-0.6 4.975-0.383 9.384-0.299" fill="none" stroke="#f9f9f9" stroke-miterlimit="10" stroke-width="1.4173"/>
<g fill="none" stroke="#f9f9f9" stroke-miterlimit="10" stroke-width="1.4173">
<line x1="556.43" x2="564.66" y1="96.042" y2="96.042"/>
<line x1="567.76" x2="573.06" y1="96.042" y2="96.042" stroke-dasharray="3.7477, 3.0967"/>
<line x1="574.61" x2="597.99" y1="96.042" y2="96.042" stroke-dasharray="14.9908, 3.0967, 3.7477, 3.0967"/>
<line x1="599.54" x2="607.78" y1="96.042" y2="96.042"/>
</g>
<g fill="none" stroke="#f9f9f9" stroke-miterlimit="10" stroke-width="1.4173">
<line x1="535.6" x2="544.19" y1="113.64" y2="113.64"/>
<line x1="547.62" x2="553.5" y1="113.64" y2="113.64" stroke-dasharray="4.1573, 3.4352"/>
<line x1="555.22" x2="581.16" y1="113.64" y2="113.64" stroke-dasharray="16.6291, 3.4352, 4.1573, 3.4352"/>
<line x1="582.87" x2="591.47" y1="113.64" y2="113.64"/>
</g>
<g fill="none" stroke="#f9f9f9" stroke-miterlimit="10" stroke-width="1.4173">
<line x1="495.18" x2="504.37" y1="132.21" y2="132.21"/>
<line x1="508.42" x2="515.34" y1="132.21" y2="132.21" stroke-dasharray="4.8977, 4.047"/>
<line x1="517.36" x2="547.92" y1="132.21" y2="132.21" stroke-dasharray="19.5909, 4.047, 4.8977, 4.047"/>
<line x1="549.95" x2="559.14" y1="132.21" y2="132.21"/>
</g>
<g fill="none" stroke="#f9f9f9" stroke-miterlimit="10" stroke-width="1.4173">
<line x1="461.96" x2="472.15" y1="154.34" y2="154.34"/>
<line x1="477.31" x2="486.13" y1="154.34" y2="154.34" stroke-dasharray="6.2445, 5.1598"/>
<line x1="488.71" x2="527.67" y1="154.34" y2="154.34" stroke-dasharray="24.9779, 5.1598, 6.2445, 5.1598"/>
<line x1="530.25" x2="540.44" y1="154.34" y2="154.34"/>
</g>
<circle cx="487.48" cy="175.49" r="1.615" fill="#f9f9f9"/>
<circle cx="474.4" cy="184.05" r="1.614" fill="#f9f9f9"/>
<circle cx="498.78" cy="184.05" r="1.615" fill="#f9f9f9"/>
<circle cx="513.96" cy="174.84" r="1.614" fill="#f9f9f9"/>
<circle cx="527.16" cy="181.7" r="1.615" fill="#f9f9f9"/>
<circle cx="543.51" cy="178.07" r="1.615" fill="#f9f9f9"/>
<circle cx="535.6" cy="167.27" r="1.615" fill="#f9f9f9"/>
<circle cx="549" cy="159.5" r="1.614" fill="#f9f9f9"/>
<circle cx="560.48" cy="170.5" r="1.615" fill="#f9f9f9"/>
<circle cx="559.66" cy="144.25" r="1.615" fill="#f9f9f9"/>
<circle cx="565.79" cy="154.34" r="1.614" fill="#f9f9f9"/>
<circle cx="576.61" cy="138.68" r="1.614" fill="#f9f9f9"/>
<circle cx="586.3" cy="152.72" r="1.614" fill="#f9f9f9"/>
<circle cx="579.84" cy="164.04" r="1.616" fill="#f9f9f9"/>
</g>
</g>
</g>
</svg>
