<?xml version="1.0" encoding="UTF-8"?>
<svg width="125" height="125" version="1.1" viewBox="0 0 33.073 33.073" xmlns="http://www.w3.org/2000/svg" xmlns:xlink="http://www.w3.org/1999/xlink">
<g transform="translate(.2262)">
<path d="m31.235 9.4723v14.129c-8.82e-4 0.86078-0.46412 1.6545-1.2129 2.079l-12.537 7.086c-0.72981 0.40944-1.6201 0.40944-2.3502 0l-12.537-7.086c-0.74877-0.42422-1.2122-1.218-1.2131-2.079v-14.129c8.82e-4 -0.86056 0.46412-1.6548 1.2131-2.079l12.537-7.0862c0.73003-0.40944 1.6204-0.40944 2.3502 0l12.537 7.0862c0.74877 0.42422 1.212 1.2184 1.2129 2.079z" fill="#f9f9f9" stroke-width=".22049"/>
<path d="m29.776 10.163v12.747c-8.82e-4 0.77634-0.4187 1.4929-1.0945 1.8757l-11.311 6.393c-0.65837 0.36954-1.4618 0.36954-2.1204 0l-11.311-6.393c-0.67557-0.38254-1.0934-1.0991-1.0943-1.8757v-12.747c8.82e-4 -0.77656 0.41848-1.4929 1.0943-1.8757l11.311-6.3932c0.65859-0.36954 1.462-0.36954 2.1204 0l11.311 6.3932c0.67579 0.38277 1.0936 1.0989 1.0945 1.8757z" fill="#d1cac3" stroke-width=".22049"/>
<path d="m2.287 17.616c2.1947 0 4.8823 0.30654 6.7498-0.83251 0.96658-0.58982 1.4579-1.7561 2.2322-2.4273 1.0906-0.94464 1.9648-1.3374 3.3487-1.4882 0.63437-0.0689 3.6008-0.44281 4.0923-0.60233 1.3644-0.44303 1.6668-0.94903 2.6044-1.8428 0.43578-0.41538 2.0569-2.5366 2.5158-2.9443 0.4303-0.38268 1.0184-0.84173 1.5235-1.0596 0.64402-0.27736 0.6975-0.19794 1.4273-0.26838" fill="none" stroke="#f9f9f9" stroke-miterlimit="10" stroke-width=".311"/>
<path d="m2.1275 24.6c2.8743 0 5.7898 0.10028 8.6475-0.03862 1.1546-0.05617 2.2926-0.10225 3.4352-0.15952 1.3146-0.06539 2.135-0.40221 3.3132-0.92094 0.29447-0.12968 0.63415-0.31905 0.87135-0.5455 0.12464-0.11893 1.4441-1.4783 1.9-2.0435 0.54989-0.6822 2.9526-4.0101 3.5361-4.5352 0.54901-0.49393 1.5891-1.0649 2.3027-1.2736 1.8779-0.54923 2.6424-0.58508 4.4872-0.58574" fill="none" stroke="#f9f9f9" stroke-miterlimit="10" stroke-width=".311"/>
<path d="m10.633 29.504c1.5053-0.05047 2.1072-0.05288 3.2783-0.05288 0.77963 0 3.0806 0.05288 3.8606 0.05288 1.1937 0 1.9077 0.0035 2.8524-0.3897 0.9205-0.38356 3.0193-1.4829 3.8268-1.931 1.1441-0.63547 3.0299-1.5419 4.1946-1.7045" fill="none" stroke="#f9f9f9" stroke-miterlimit="10" stroke-width=".311"/>
<g transform="matrix(.21943 0 0 .21943 -99.081 -12.422)">
<g fill="none" stroke="#f9f9f9" stroke-miterlimit="10">
<line x1="556.43" x2="564.66" y1="96.042" y2="96.042" stroke-width="1.4173"/>
<line x1="567.76" x2="573.06" y1="96.042" y2="96.042" stroke-dasharray="3.7477, 3.0967" stroke-width="1.4173"/>
<line x1="574.61" x2="590.34" y1="96.042" y2="96.042" stroke-dasharray="14.9908, 3.0967, 3.7477, 3.0967" stroke-width="1.1626"/>
</g>
</g>
<g transform="matrix(.21943 0 0 .21943 -99.081 -12.422)">
<g fill="none" stroke="#f9f9f9" stroke-miterlimit="10" stroke-width="1.4173">
<line x1="535.6" x2="544.19" y1="113.64" y2="113.64"/>
<line x1="547.62" x2="553.5" y1="113.64" y2="113.64" stroke-dasharray="4.1573, 3.4352"/>
<line x1="555.22" x2="581.16" y1="113.64" y2="113.64" stroke-dasharray="16.6291, 3.4352, 4.1573, 3.4352"/>
<line x1="582.87" x2="591.47" y1="113.64" y2="113.64"/>
</g>
</g>
<g transform="matrix(.21943 0 0 .21943 -99.081 -12.422)">
<g fill="none" stroke="#f9f9f9" stroke-miterlimit="10" stroke-width="1.4173">
<line x1="495.18" x2="504.37" y1="132.21" y2="132.21"/>
<line x1="508.42" x2="515.34" y1="132.21" y2="132.21" stroke-dasharray="4.8977, 4.047"/>
<line x1="517.36" x2="547.92" y1="132.21" y2="132.21" stroke-dasharray="19.5909, 4.047, 4.8977, 4.047"/>
<line x1="549.95" x2="559.14" y1="132.21" y2="132.21"/>
</g>
</g>
<g transform="matrix(.21943 0 0 .21943 -99.081 -12.422)">
<g fill="none" stroke="#f9f9f9" stroke-miterlimit="10" stroke-width="1.4173">
<line x1="461.96" x2="472.15" y1="154.34" y2="154.34"/>
<line x1="477.31" x2="486.13" y1="154.34" y2="154.34" stroke-dasharray="6.2445, 5.1598"/>
<line x1="488.71" x2="527.67" y1="154.34" y2="154.34" stroke-dasharray="24.9779, 5.1598, 6.2445, 5.1598"/>
<line x1="530.25" x2="540.44" y1="154.34" y2="154.34"/>
</g>
</g>
<circle cx="7.8855" cy="26.085" r=".35438" fill="#f9f9f9" stroke-width=".21943"/>
<circle cx="10.366" cy="27.963" r=".35438" fill="#f9f9f9" stroke-width=".21943"/>
<circle cx="13.697" cy="25.943" r=".35416" fill="#f9f9f9" stroke-width=".21943"/>
<circle cx="16.593" cy="27.447" r=".35438" fill="#f9f9f9" stroke-width=".21943"/>
<circle cx="20.181" cy="26.652" r=".35438" fill="#f9f9f9" stroke-width=".21943"/>
<circle cx="18.444" cy="24.281" r=".35438" fill="#f9f9f9" stroke-width=".21943"/>
<circle cx="21.385" cy="22.577" r=".35416" fill="#f9f9f9" stroke-width=".21943"/>
<circle cx="23.905" cy="24.989" r=".35438" fill="#f9f9f9" stroke-width=".21943"/>
<circle cx="23.724" cy="19.23" r=".35438" fill="#f9f9f9" stroke-width=".21943"/>
<circle cx="25.071" cy="21.443" r=".35416" fill="#f9f9f9" stroke-width=".21943"/>
<circle cx="27.445" cy="18.008" r=".35416" fill="#f9f9f9" stroke-width=".21943"/>
<circle cx="29.352" cy="21.125" r=".35416" fill="#f9f9f9" stroke-width=".21943"/>
<circle cx="28.153" cy="23.572" r=".3546" fill="#f9f9f9" stroke-width=".21943"/>
</g>
</svg>
