<?xml version="1.0" encoding="UTF-8"?>
<!-- Created with Inkscape (http://www.inkscape.org/) -->
<svg width="29.85mm" height="33.073mm" version="1.1" viewBox="0 0 29.85 33.073" xmlns="http://www.w3.org/2000/svg" xmlns:xlink="http://www.w3.org/1999/xlink">
 <defs>
  <clipPath id="SVGID_4_" clip-path="url(#SVGID_3_)">
   <use width="100%" height="100%" overflow="visible" xlink:href="#SVGID_2_"/>
  </clipPath>
  <path id="SVGID_1_" d="m140.23 64.309h64.079c3.904 4e-3 7.504 2.105 9.429 5.501l32.138 56.86c1.857 3.31 1.857 7.348 0 10.659l-32.138 56.86c-1.924 3.396-5.525 5.498-9.429 5.501h-64.079c-3.904-3e-3 -7.505-2.104-9.429-5.501l-32.138-56.86c-1.858-3.311-1.858-7.349 0-10.659l32.138-56.86c1.925-3.396 5.526-5.497 9.429-5.501z"/>
  <path id="SVGID_2_" d="m143.37 70.928h57.813c3.522 4e-3 6.771 1.899 8.507 4.964l28.996 51.3c1.676 2.986 1.676 6.63 0 9.617l-28.996 51.3c-1.736 3.064-4.985 4.96-8.507 4.963h-57.813c-3.522-3e-3 -6.771-1.899-8.507-4.963l-28.996-51.3c-1.676-2.987-1.676-6.631 0-9.617l28.996-51.3c1.736-3.065 4.985-4.96 8.507-4.964z"/>
 </defs>
 <g transform="translate(-81.573 -93.543)">
  <g transform="matrix(.26458 0 0 .26458 -22.474 -59.939)">
   <g transform="matrix(0 .83334 -.83334 0 559.66 499.03)">
    <path d="m140.23 64.309h64.079c3.904 4e-3 7.504 2.105 9.429 5.501l32.138 56.86c1.857 3.31 1.857 7.348 0 10.659l-32.138 56.86c-1.924 3.396-5.525 5.498-9.429 5.501h-64.079c-3.904-3e-3 -7.505-2.104-9.429-5.501l-32.138-56.86c-1.858-3.311-1.858-7.349 0-10.659l32.138-56.86c1.925-3.396 5.526-5.497 9.429-5.501z" fill="#fcfcfc"/>
    <path d="m143.37 70.928h57.813c3.522 4e-3 6.771 1.899 8.507 4.964l28.996 51.3c1.676 2.986 1.676 6.63 0 9.617l-28.996 51.3c-1.736 3.064-4.985 4.96-8.507 4.963h-57.813c-3.522-3e-3 -6.771-1.899-8.507-4.963l-28.996-51.3c-1.676-2.987-1.676-6.631 0-9.617l28.996-51.3c1.736-3.065 4.985-4.96 8.507-4.964z" fill="#81a0b6"/>
   </g>
   <g transform="matrix(.83334 0 0 .83334 295.57 522.25)">
    <clipPath id="SVGID_3_">
     <use width="100%" height="100%" overflow="visible" xlink:href="#SVGID_1_"/>
    </clipPath>
    <clipPath clip-path="url(#SVGID_3_)">
     <use width="100%" height="100%" overflow="visible" xlink:href="#SVGID_2_"/>
    </clipPath>
    <g clip-path="url(#SVGID_4_)" fill="none" stroke="#ffffff" stroke-miterlimit="10" stroke-width="1.4173">
     <path d="m239.94 129.38c-16.419-0.043-16.419-0.113-30.763-0.059-3.174 0.012-6.863-0.265-8.928-1.363-4.526-2.406-6.041-6.576-4.192-11.153 1.003-2.069 1.539-2.338 3.009-3.119 1.219-0.647 3.526-0.814 4.875-0.455 3.557 0.946 4.2 3.487 4.2 7.272"/>
     <path d="m241.5 154.74s-43.065-0.092-47.396-0.076c-4.111 0.015-8.887-0.343-11.562-1.766-5.861-3.115-7.824-8.516-5.429-14.443 1.299-2.68 1.993-3.028 3.898-4.04 1.577-0.838 4.566-1.054 6.313-0.589 4.152 1.105 6.019 3.93 5.413 8.016-0.227 1.531-1.277 3.38-2.382 4.071-2.452 1.533-6.193 0.669-6.812-0.08"/>
     <path d="m226.37 180.6s-57.746-0.118-63.266-0.097c-5.241 0.02-11.33-0.437-14.738-2.25-7.473-3.971-9.974-10.856-6.92-18.412 1.656-3.416 2.541-3.86 4.969-5.15 2.01-1.067 5.82-1.343 8.048-0.75 5.292 1.409 7.672 5.009 6.899 10.218-0.289 1.951-1.628 4.309-3.037 5.189-3.125 1.955-7.894 0.852-8.682-0.102"/>
    </g>
   </g>
  </g>
 </g>
</svg>
