<?xml version="1.0" encoding="UTF-8"?>
<svg enable-background="new 0 0 1024 768" version="1.1" viewBox="0 0 125 125" xml:space="preserve" xmlns="http://www.w3.org/2000/svg" xmlns:xlink="http://www.w3.org/1999/xlink"><defs>
	

		
		
		
	
			
			
			
		
	
	
	
	
	
	
	
	
	
	
	
	
	
	
	

			
			
			
		
			
			
			
		
		
		
	<clipPath id="c" clip-path="url(#a)"><use width="100%" height="100%" overflow="visible" xlink:href="#b"/></clipPath><path id="d" d="m151.23 317.31h64.079c3.904 4e-3 7.504 2.105 9.429 5.501l32.138 56.86c1.857 3.31 1.857 7.349 0 10.659l-32.138 56.859c-1.924 3.396-5.525 5.498-9.429 5.502h-64.079c-3.904-4e-3 -7.505-2.105-9.429-5.502l-32.138-56.859c-1.858-3.311-1.858-7.35 0-10.659l32.138-56.86c1.924-3.396 5.526-5.497 9.429-5.501z"/><path id="b" d="m154.37 323.93h57.813c3.522 4e-3 6.771 1.899 8.507 4.964l28.996 51.3c1.676 2.986 1.676 6.63 0 9.617l-28.996 51.301c-1.736 3.064-4.985 4.959-8.507 4.963h-57.813c-3.522-4e-3 -6.771-1.898-8.507-4.963l-28.996-51.301c-1.676-2.986-1.676-6.631 0-9.617l28.996-51.3c1.736-3.065 4.985-4.96 8.507-4.964z"/>
			
			
			
			
			
		
				
				
				
				
			
		
		
	
		
		
	
			
			
		
		
		
	</defs>
<g display="none">
	<rect width="1024" height="768" display="inline" fill="#ddafaf"/>
</g>


<g transform="translate(-220.19 -90.32)"><g transform="rotate(90 282.16 152.82)" stroke-width=".83334"><path d="m255.46 96.411h53.399c3.2534 0.0033 6.2534 1.7542 7.8575 4.5842l26.782 47.384c1.5475 2.7584 1.5475 6.1242 0 8.8825l-26.782 47.383c-1.6033 2.83-4.6042 4.5817-7.8575 4.585h-53.399c-3.2534-3e-3 -6.2542-1.7542-7.8575-4.585l-26.782-47.383c-1.5483-2.7592-1.5483-6.125 0-8.8825l26.782-47.384c1.6034-2.83 4.605-4.5809 7.8575-4.5842z" fill="#fcfcfc"/><path d="m258.07 101.93h48.178c2.935 3e-3 5.6425 1.5825 7.0892 4.1367l24.163 42.75c1.3967 2.4884 1.3967 5.525 0 8.0142l-24.163 42.751c-1.4467 2.5534-4.1542 4.1325-7.0892 4.1359h-48.178c-2.935-3e-3 -5.6425-1.5817-7.0892-4.1359l-24.163-42.751c-1.3967-2.4884-1.3967-5.5259 0-8.0142l24.163-42.75c1.4467-2.5542 4.1542-4.1334 7.0892-4.1367z" fill="#628aa0"/></g><g transform="matrix(.83334 0 0 .83334 130.51 -170.17)"><clipPath id="a"><use width="100%" height="100%" overflow="visible" xlink:href="#d"/></clipPath><clipPath clip-path="url(#a)"><use width="100%" height="100%" overflow="visible" xlink:href="#b"/></clipPath><g clip-path="url(#c)" fill="none" stroke="#f9f9f9" stroke-miterlimit="10" stroke-width="1.4173"><path d="m134.87 425.42c2.329 1.437 10.018 7.678 10.802 8.363 0.327 0.286 4.505 2.989 5.556 3.256 2.146 0.544 4.358 0.041 6.331-1.033 2.531-1.378 4.813-3.653 6.978-5.607 1.873-1.689 4.016-3.67 6.176-4.755 2.081-1.046 3.362-1.753 5.763-1.758 1.22-2e-3 3.107 0.368 4.057 1.215 0.902 0.803 4.247 3.534 5.298 4.238 1.129 0.755 5.375 4.512 5.843 4.904 0.976 0.819 2.154 1.539 3.227 2.202 1.572 0.97 4.59 0.886 6.616 0.104 1.137-0.439 2.181-1.119 3.23-1.81 1.133-0.744 2.23-1.646 3.308-2.559 2.558-2.167 4.88-4.402 7.473-6.31 1.821-1.341 4.481-1.903 6.726-1.691 2.18 0.205 4.199 2.104 5.983 3.246 2.017 1.293 7.711 6.686 9.446 7.53 1.799 0.877 4.043 2.467 5.749 2.455"/><path d="m146.81 414.01c2.197-0.03 3.252-0.331 5.226-1.405 2.531-1.377 4.813-3.653 6.977-5.607 1.873-1.689 4.016-3.67 6.176-4.755 2.081-1.045 3.362-1.753 5.763-1.757 1.221-2e-3 3.107 0.368 4.057 1.214 0.902 0.804 4.247 3.534 5.297 4.238 1.129 0.756 5.375 4.513 5.844 4.905 0.976 0.818 2.154 1.539 3.227 2.202 1.571 0.97 4.59 0.886 6.615 0.103 1.138-0.439 2.181-1.119 3.23-1.809 1.133-0.745 2.23-1.646 3.308-2.559 2.558-2.168 4.88-4.403 7.472-6.311 1.822-1.34 4.482-1.902 6.727-1.691 2.179 0.206 4.199 2.105 5.982 3.247 2.017 1.292 7.812 6.504 9.447 7.529 0.889 0.558 2.86 2.223 5.012 2.264 2.513 0.049 5.18-1.717 6.099-1.723"/><path d="m185.93 390.6c2.197-0.028 3.253-0.329 5.226-1.403 2.53-1.379 4.813-3.653 6.977-5.607 1.873-1.69 4.017-3.669 6.177-4.755 2.081-1.045 3.362-1.752 5.763-1.757 1.22-3e-3 3.106 0.368 4.057 1.214 0.902 0.803 4.247 3.534 5.298 4.238 1.129 0.756 5.375 4.513 5.844 4.906 0.976 0.817 2.154 1.538 3.227 2.201 1.571 0.971 4.59 0.886 6.615 0.104 1.137-0.44 2.181-1.12 3.23-1.81 1.133-0.746 2.23-1.646 3.308-2.559 2.558-2.168 4.88-4.403 7.473-6.311 1.822-1.34 4.481-1.903 6.727-1.692 2.178 0.205 4.199 2.104 5.982 3.247 2.018 1.292 7.813 6.504 9.447 7.53 0.889 0.558 2.86 2.223 5.011 2.264 2.514 0.05 5.18-1.717 6.099-1.722"/><path d="m225.63 367.2c2.196-0.029 3.253-0.33 5.226-1.405 2.531-1.378 8.5061-6.9316 10.671-8.8846 1.873-1.69 0.32294-0.39141 2.4829-1.4774 2.081-1.046 3.362-1.752 5.763-1.757 1.22-2e-3 3.106 0.368 4.057 1.215 0.902 0.803 4.246 3.534 5.298 4.238 1.128 0.756 5.374 4.513 5.843 4.906 0.977 0.818 2.154 1.538 3.227 2.201 1.572 0.97 4.59 0.886 6.616 0.103 1.137-0.439 2.181-1.119 3.23-1.809 1.133-0.746 2.23-1.646 3.308-2.559 2.559-2.168 4.88-4.403 7.473-6.311 1.822-1.34 4.482-1.903 6.727-1.691 2.179 0.205 4.2 2.104 5.982 3.247 2.018 1.292 7.813 6.505 9.447 7.53 0.889 0.558 2.86 2.222 5.012 2.264 2.513 0.049 5.179-1.717 6.099-1.723"/></g></g></g></svg>
