<?xml version="1.0" encoding="UTF-8"?>
<svg enable-background="new 0 0 1024 768" version="1.1" viewBox="0 0 125 125" xml:space="preserve" xmlns="http://www.w3.org/2000/svg" xmlns:xlink="http://www.w3.org/1999/xlink">
<g display="none">
	<rect width="1024" height="768" display="inline" fill="#ddafaf"/>
</g>


<g transform="translate(.52873)"><g transform="rotate(90 217.22 -2.4335)" stroke-width=".83334"><path d="m255.46 96.411h53.399c3.2534 0.0033 6.2534 1.7542 7.8575 4.5842l26.782 47.384c1.5475 2.7584 1.5475 6.1242 0 8.8825l-26.782 47.383c-1.6033 2.83-4.6042 4.5817-7.8575 4.585h-53.399c-3.2534-3e-3 -6.2542-1.7542-7.8575-4.585l-26.782-47.383c-1.5483-2.7592-1.5483-6.125 0-8.8825l26.782-47.384c1.6034-2.83 4.605-4.5809 7.8575-4.5842z" fill="#fcfcfc"/><path d="m258.07 101.93h48.178c2.935 3e-3 5.6425 1.5825 7.0892 4.1367l24.163 42.75c1.3967 2.4884 1.3967 5.525 0 8.0142l-24.163 42.751c-1.4467 2.5534-4.1542 4.1325-7.0892 4.1359h-48.178c-2.935-3e-3 -5.6425-1.5817-7.0892-4.1359l-24.163-42.751c-1.3967-2.4884-1.3967-5.5259 0-8.0142l24.163-42.75c1.4467-2.5542 4.1542-4.1334 7.0892-4.1367z" fill="#628aa0"/></g><path d="m22.711 94.032c1.9408 1.1975 8.3484 6.3984 9.0017 6.9692 0.2725 0.23834 3.7542 2.4908 4.63 2.7134 1.7883 0.45333 3.6317 0.0342 5.2759-0.86084 2.1092-1.1483 4.0109-3.0442 5.815-4.6725 1.5608-1.4075 3.3467-3.0583 5.1467-3.9625 1.7342-0.87167 2.8017-1.4608 4.8025-1.465 1.0167-0.0017 2.5892 0.30667 3.3808 1.0125 0.75167 0.66917 3.5392 2.945 4.415 3.5317 0.94084 0.62917 4.4792 3.76 4.8692 4.0867 0.81334 0.6825 1.795 1.2825 2.6892 1.835 1.31 0.80833 3.825 0.73833 5.5134 0.0867 0.9475-0.36583 1.8175-0.9325 2.6917-1.5083 0.94417-0.62 1.8583-1.3717 2.7567-2.1325 2.1317-1.8058 4.0667-3.6684 6.2275-5.2584 1.5175-1.1175 3.7342-1.5858 5.605-1.4092 1.8167 0.17084 3.4992 1.7533 4.9859 2.705 1.6808 1.0775 2.5789 2.648 4.0248 3.3513" fill="none" stroke="#f9f9f9" stroke-miterlimit="10" stroke-width="1.1811"/><path d="m32.66 84.522c1.8308-0.025 2.71-0.27584 4.355-1.1708 2.1092-1.1475 4.0109-3.0442 5.8142-4.6725 1.5608-1.4075 3.3467-3.0583 5.1467-3.9625 1.7342-0.87084 2.8017-1.4608 4.8025-1.4642 1.0175-0.0017 2.5892 0.30667 3.3809 1.0117 0.75167 0.67 3.5392 2.945 4.4142 3.5317 0.94084 0.63 4.4792 3.7609 4.87 4.0875 0.81334 0.68167 1.795 1.2825 2.6892 1.835 1.3092 0.80834 3.825 0.73834 5.5125 0.08583 0.94834-0.36584 1.8175-0.9325 2.6917-1.5075 0.94417-0.62084 1.8583-1.3717 2.7567-2.1325 2.1317-1.8067 4.0667-3.6692 6.2267-5.2592 1.5183-1.1167 3.735-1.585 5.6059-1.4092 1.8158 0.17167 3.4992 1.7542 4.985 2.7058 1.6808 1.0767 6.51 5.42 7.8725 6.2742 0.74083 0.465 2.3833 1.8525 4.1767 1.8867 2.0942 0.04083 4.3167-1.4308 5.0825-1.4358" fill="none" stroke="#f9f9f9" stroke-miterlimit="10" stroke-width="1.1811"/><path d="m63.259 65.017c1.8308-0.02333 2.7108-0.27417 4.355-1.1692 2.1083-1.1492 4.0109-3.0442 5.8142-4.6725 1.5608-1.4083 3.3475-3.0575 5.1475-3.9625 1.7342-0.87084 2.8017-1.46 4.8025-1.4642 1.0167-0.0025 2.5883 0.30667 3.3808 1.0117 0.75167 0.66917 3.5392 2.945 4.415 3.5317 0.94084 0.63 4.4792 3.7609 4.87 4.0884 0.81334 0.68084 1.795 1.2817 2.6892 1.8342 1.3092 0.80917 3.825 0.73834 5.5125 0.08667 0.9475-0.36667 1.8175-0.93334 2.6917-1.5083 0.94417-0.62167 1.8583-1.3717 2.7567-2.1325 2.1317-1.8067 3.1434-2.7459 5.3043-4.3359" fill="none" stroke="#f9f9f9" stroke-miterlimit="10" stroke-width="1.1811"/><path d="m98.345 45.516c1.83-0.02417 2.7108-0.275 4.355-1.1708 2.1092-1.1483 7.0884-5.7764 8.8926-7.4039 1.5608-1.4083 0.26912-0.32618 2.0691-1.2312" fill="none" stroke="#f9f9f9" stroke-miterlimit="10" stroke-width="1.1811"/></g></svg>
