<?xml version="1.0" encoding="UTF-8"?>
<svg width="125" height="125" version="1.1" viewBox="0 0 33.073 33.073" xmlns="http://www.w3.org/2000/svg" xmlns:xlink="http://www.w3.org/1999/xlink">
<g transform="matrix(.26458 0 0 .26458 -58.118 -87.899)">
<g transform="matrix(0 .83334 -.83334 0 814.66 245.04)">
<path d="m147.57 571.31h64.079c3.904 4e-3 7.504 2.104 9.429 5.501l32.138 56.86c1.857 3.31 1.857 7.348 0 10.658l-32.138 56.86c-1.924 3.396-5.524 5.498-9.429 5.502h-64.079c-3.903-4e-3 -7.505-2.105-9.429-5.502l-32.138-56.86c-1.857-3.311-1.857-7.349 0-10.658l32.139-56.86c1.923-3.397 5.525-5.497 9.428-5.501z" fill="#fcfcfc"/>
<path d="m150.7 577.93h57.813c3.521 4e-3 6.771 1.899 8.507 4.964l28.995 51.301c1.676 2.985 1.676 6.629 0 9.616l-28.995 51.301c-1.735 3.064-4.985 4.959-8.507 4.963h-57.813c-3.522-4e-3 -6.771-1.898-8.507-4.963l-28.996-51.301c-1.676-2.987-1.676-6.631 0-9.616l28.996-51.301c1.736-3.065 4.984-4.96 8.507-4.964z" fill="#4a7284"/>
</g>
<g transform="matrix(.83334 0 0 .83334 138.91 91.099)" fill="none" stroke="#f9f9f9" stroke-miterlimit="10">
<path d="m110.42 389.56c13.099 0 16.8 0.35309 29.823-0.27991 5.262-0.256 10.448-0.466 15.655-0.727 5.991-0.298 9.73-1.833 15.099-4.197 1.342-0.591 2.89-1.454 3.971-2.486 0.568-0.542 6.581-6.737 8.659-9.313 2.506-3.109 13.456-18.275 16.115-20.668 2.502-2.251 7.242-4.853 10.494-5.804 8.558-2.503 14.039-2.5 22.446-2.503" stroke-width="1.4173"/>
<path d="m104.57 373.31c10.002 0 22.25 1.397 30.761-3.794 4.405-2.688 6.644-8.003 10.173-11.062 4.97-4.305 8.954-6.095 15.261-6.782 2.891-0.314 16.41-2.018 18.65-2.745 6.218-2.019 7.596-4.325 11.869-8.398 1.986-1.893 9.374-11.56 11.465-13.418 1.961-1.744 4.641-3.836 6.943-4.829 2.935-1.264 7.179-1.608 10.505-1.929" stroke-width="1.4173"/>
<line x1="201.37" x2="209.61" y1="328.31" y2="328.31" stroke-width="1.417"/>
<line x1="212.7" x2="218" y1="328.31" y2="328.31" stroke-dasharray="3.7477, 3.0967" stroke-width="1.4173"/>
<line x1="218" x2="226.24" y1="328.31" y2="328.31" stroke-width="1.4173"/>
<line x1="188.84" x2="194.72" y1="343.58" y2="343.58" stroke-dasharray="4.1573, 3.4352" stroke-width="1.4173"/>
<line x1="196.43" x2="211.63" y1="343.58" y2="343.58" stroke-dasharray="21.7193, 4.48671, 5.42985, 4.48671" stroke-width="1.417"/>
<g stroke-width="1.4173">
<line x1="141.81" x2="151.01" y1="362.31" y2="362.31"/>
<line x1="155.05" x2="161.97" y1="362.31" y2="362.31" stroke-dasharray="4.8977, 4.047"/>
<line x1="163.09" x2="193.64" y1="362.3" y2="362.3" stroke-dasharray="19.5909, 4.047, 4.8977, 4.047"/>
</g>
<g stroke-width="1.4173">
<line x1="107.01" x2="117.19" y1="384.46" y2="384.46"/>
<line x1="122.35" x2="131.18" y1="384.46" y2="384.46" stroke-dasharray="6.2445, 5.1598"/>
<line x1="134.56" x2="173.52" y1="384.4" y2="384.4" stroke-dasharray="24.9779, 5.1598, 6.2445, 5.1598"/>
</g>
<g stroke-width="1.4173">
<path d="m122.46 409.22c2.329 1.437 10.018 7.678 10.802 8.363 0.327 0.286 4.505 2.989 5.556 3.256 2.146 0.544 4.358 0.041 6.331-1.033 2.531-1.378 4.813-3.653 6.978-5.607 1.873-1.689 4.016-3.67 6.176-4.755 2.081-1.046 3.362-1.753 5.763-1.758 1.22-2e-3 3.107 0.368 4.057 1.215 0.902 0.803 4.247 3.534 5.298 4.238 1.129 0.755 5.375 4.512 5.843 4.904 0.976 0.819 2.154 1.539 3.227 2.202 1.572 0.97 4.59 0.886 6.616 0.104 1.137-0.439 2.181-1.119 3.23-1.81 1.133-0.744 2.23-1.646 3.308-2.559 2.558-2.167 4.88-4.402 7.473-6.31 1.821-1.341 4.481-1.903 6.726-1.691 2.18 0.205 4.199 2.104 5.983 3.246"/>
<path d="m115.95 390.92c2.329 1.437 10.018 7.678 10.802 8.363 0.327 0.286 4.505 2.989 5.556 3.256 2.146 0.544 4.358 0.041 6.331-1.033 2.531-1.378 4.813-3.653 6.978-5.607 1.873-1.689 4.016-3.67 6.176-4.755 2.081-1.046 3.362-1.753 5.763-1.758 1.22-2e-3 3.107 0.368 4.057 1.215 0.902 0.803 4.247 3.534 5.298 4.238 1.129 0.755 5.375 4.512 5.843 4.904 0.976 0.819 2.154 1.539 3.227 2.202 1.572 0.97 4.59 0.886 6.616 0.104 1.137-0.439 2.181-1.119 3.23-1.81 1.133-0.744 2.23-1.646 3.308-2.559 2.558-2.167 4.88-4.402 7.473-6.31 1.821-1.341 4.481-1.903 6.726-1.691 2.18 0.205 4.199 2.104 5.983 3.246 2.017 1.293 7.711 6.686 9.446 7.53"/>
<path d="m170.78 384.61c2.197-0.028 3.253-0.329 5.226-1.403 2.53-1.379 4.813-3.653 6.977-5.607 1.873-1.69 4.017-3.669 6.177-4.755 2.081-1.045 3.362-1.752 5.763-1.757 1.22-3e-3 3.106 0.368 4.057 1.214 0.902 0.803 4.247 3.534 5.298 4.238 1.129 0.756 5.375 4.513 5.844 4.906 0.976 0.817 2.154 1.538 3.227 2.201 1.571 0.971 4.59 0.886 6.615 0.104 1.137-0.44 2.181-1.12 3.23-1.81 1.133-0.746 2.23-1.646 3.308-2.559 2.558-2.168 4.88-4.403 7.473-6.311 1.822-1.34 3.3086-2.5052 5.5546-2.2942"/>
<path d="m197.32 354.01c0.902 0.803 4.246 3.534 5.298 4.238 1.128 0.756 5.374 4.513 5.843 4.906 0.977 0.818 2.154 1.538 3.227 2.201 1.572 0.97 4.59 0.886 6.616 0.103 1.137-0.439 2.181-1.119 3.23-1.809 1.133-0.746 2.23-1.646 3.308-2.559 2.559-2.168 7.8446-5.9919 10.438-7.8999"/>
</g>
</g>
</g>
</svg>
