<?xml version="1.0" encoding="UTF-8"?>
<svg width="125" height="125" version="1.1" viewBox="0 0 33.073 33.073" xmlns="http://www.w3.org/2000/svg">
<g transform="matrix(.26458 0 0 .26458 -235.47 -56.29)">
<g transform="matrix(0 .83334 -.83334 0 1255.6 -436.83)">
<path d="m822.46 296.07h64.079c3.904 4e-3 7.504 2.105 9.429 5.501l32.138 56.86c1.857 3.31 1.857 7.348 0 10.659l-32.138 56.859c-1.924 3.396-5.524 5.498-9.429 5.502h-64.079c-3.903-4e-3 -7.505-2.105-9.429-5.502l-32.139-56.859c-1.857-3.311-1.857-7.349 0-10.659l32.139-56.86c1.924-3.396 5.526-5.497 9.429-5.501z" fill="#fcfcfc"/>
<path d="m825.59 302.69h57.813c3.521 4e-3 6.771 1.899 8.507 4.964l28.995 51.3c1.676 2.986 1.676 6.63 0 9.617l-28.995 51.3c-1.735 3.064-4.985 4.959-8.507 4.963h-57.813c-3.522-4e-3 -6.771-1.898-8.507-4.963l-28.996-51.3c-1.676-2.987-1.676-6.631 0-9.617l28.996-51.3c1.736-3.065 4.984-4.96 8.507-4.964z" fill="#9b938c"/>
</g>
<g transform="matrix(1.0258 0 0 1.0258 76.224 30.163)">
<circle cx="854.21" cy="238.93" r="7.5" fill="#f9f9f9" stroke-width=".98426"/>
<g transform="translate(.41223 -1.2686e-5)" fill="none" stroke="#fff" stroke-linecap="round" stroke-linejoin="round" stroke-width="1px">
<path d="m861.49 230.8c1.2589 0.56393-0.16732 1.5603 2.2267 2.9227-0.041 2.393 0.74027 3.8212 1.3764 4.6283-0.78932 1.9018-1.0786 3.3251-1.1303 5.3922-1.3012 0.74896-1.7302 2.6476-2.5865 3.2744"/>
<path d="m866.34 227.44c1.8404 0.75386 2.4713 4.178 4.0704 5.8178-0.041 2.393 0.47876 4.8809 1.1149 5.688-0.78932 1.9018-1.4372 4.6963-1.489 6.7634-1.3012 0.74896-2.656 4.4501-3.4788 4.8586"/>
<path d="m871.24 223.93c1.511 0.37915 3.3465 6.0674 5.5164 7.9274-0.041 2.393 0.55659 6.3506 1.1927 7.1577-0.78932 1.9018-1.8611 6.3168-1.9128 8.3839-1.396 0.84168-3.6121 6.1586-4.6536 6.5647"/>
<path d="m876.29 220.45c1.511 0.37915 4.6925 8.2918 6.8158 10.372-0.041 2.393 0.63778 7.0144 1.2739 7.8215-0.78932 1.9018-1.8351 7.9965-1.8868 10.064-1.396 0.84168-5.1386 8.3519-6.18 8.758"/>
<path d="m881.41 217.04c1.511 0.37915 6.5251 10.477 8.1598 12.774-0.041 2.393 0.61336 9.2682 1.2495 10.075-0.74753 2.1232-2.8764 10.283-2.9281 12.351-1.396 0.84168-5.446 8.1718-6.4875 8.5779"/>
</g>
<g transform="rotate(180 854 238.93)" fill="none" stroke="#fff" stroke-linecap="round" stroke-linejoin="round" stroke-width="1px">
<path d="m861.49 230.8c1.2589 0.56393-0.16732 1.5603 2.2267 2.9227-0.041 2.393 0.74027 3.8212 1.3764 4.6283-0.78932 1.9018-1.0786 3.3251-1.1303 5.3922-1.3012 0.74896-1.7302 2.6476-2.5865 3.2744"/>
<path d="m866.34 227.44c1.8404 0.75386 2.4713 4.178 4.0704 5.8178-0.041 2.393 0.47876 4.8809 1.1149 5.688-0.78932 1.9018-1.4372 4.6963-1.489 6.7634-1.3012 0.74896-2.656 4.4501-3.4788 4.8586"/>
<path d="m871.24 223.93c1.511 0.37915 3.3465 6.0674 5.5164 7.9274-0.041 2.393 0.55659 6.3506 1.1927 7.1577-0.78932 1.9018-1.8611 6.3168-1.9128 8.3839-1.396 0.84168-3.6121 6.1586-4.6536 6.5647"/>
<path d="m876.29 220.45c1.511 0.37915 4.6925 8.2918 6.8158 10.372-0.041 2.393 0.63778 7.0144 1.2739 7.8215-0.78932 1.9018-1.8351 7.9965-1.8868 10.064-1.396 0.84168-5.1386 8.3519-6.18 8.758"/>
<path d="m881.41 217.04c1.511 0.37915 6.5251 10.477 8.1598 12.774-0.041 2.393 0.61336 9.2682 1.2495 10.075-0.74753 2.1232-2.8764 10.283-2.9281 12.351-1.396 0.84168-5.446 8.1718-6.4875 8.5779"/>
</g>
</g>
</g>
</svg>
