<?xml version="1.0" encoding="UTF-8"?>
<svg width="125" height="125" version="1.1" viewBox="0 0 33.073 33.073" xmlns="http://www.w3.org/2000/svg" xmlns:xlink="http://www.w3.org/1999/xlink">
<g transform="matrix(.26458 0 0 .26458 -235.39 -152.31)">
<g transform="matrix(0 .83334 -.83334 0 1484.7 204.04)">
<path d="m488.91 571.31h64.079c3.904 4e-3 7.504 2.105 9.429 5.502l32.138 56.859c1.857 3.311 1.857 7.35 0 10.66l-32.138 56.859c-1.924 3.396-5.524 5.498-9.429 5.502h-64.079c-3.903-4e-3 -7.505-2.105-9.429-5.502l-32.139-56.859c-1.857-3.311-1.857-7.35 0-10.66l32.139-56.859c1.924-3.397 5.526-5.498 9.429-5.502z" fill="#fcfcfc"/>
<path d="m492.05 577.93h57.813c3.521 4e-3 6.771 1.899 8.507 4.964l28.995 51.3c1.676 2.986 1.676 6.631 0 9.617l-28.995 51.301c-1.735 3.064-4.985 4.959-8.507 4.963h-57.813c-3.522-4e-3 -6.771-1.898-8.507-4.963l-28.996-51.301c-1.676-2.986-1.676-6.631 0-9.617l28.996-51.3c1.736-3.065 4.984-4.96 8.507-4.964z" fill="#605c58"/>
</g>
<g transform="matrix(.83334 0 0 .83334 239.76 121.28)" fill="none" stroke="#f9f9f9" stroke-miterlimit="10">
<path d="m844.74 590.49c-0.54089 0.64457-1.0164 1.4226-1.4543 2.1312-0.64061 1.0382-0.58514 3.0314-0.0687 4.3694 0.28993 0.7509 0.73902 1.4404 1.1954 2.1332 0.49136 0.74826 1.0871 1.4728 1.69 2.1847 1.4312 1.6894 2.9072 3.2229 4.1673 4.9354 0.88563 1.2026 1.2568 2.9594 1.1168 4.442-0.13539 1.4397-1.3895 2.7731-2.1437 3.9513-0.85393 1.3321-4.4156 5.0925-4.973 6.2384-0.57919 1.1881-1.6293 2.6701-1.6213 3.7968" stroke-width="1.417"/>
<path d="m819.25 588.78c0.0166 1.2154 0.18311 1.799 0.77723 2.891 0.76174 1.4001 2.0208 2.6625 3.1017 3.8596 0.93434 1.0361 2.0302 2.2216 2.6304 3.4165 0.57808 1.1512 0.96974 1.8598 0.97195 3.188 1e-3 0.67545-0.20357 1.7188-0.67157 2.2443-0.44476 0.49897-1.955 2.3494-2.3444 2.9302-0.41821 0.62455-2.4965 2.9734-2.7134 3.2328-0.45251 0.53992-0.85136 1.1916-1.2181 1.7851-0.53659 0.86906-0.49012 2.5391-0.057 3.6593 0.24285 0.62953 0.61902 1.2065 1.0007 1.7868 0.41212 0.62676 0.91054 1.2336 1.4156 1.8299 1.1993 1.415 2.4357 2.6996 3.4912 4.1334 0.74127 1.0079 1.0522 2.4794 0.93544 3.7213-0.11396 1.2054-1.1645 2.3228-1.7962 3.3092-0.71472 1.1158-3.5979 4.3215-4.165 5.226-0.30868 0.49179-1.2297 1.5821-1.2524 2.7726-0.0271 1.3902 0.94982 2.8655 0.95314 3.3739" stroke-width="1.417"/>
<path d="m867.37 579.19c0.0125 0.97959 0.14669 1.4504 0.62556 2.3302 0.61487 1.1281 1.6288 2.146 2.5 3.1109 0.75354 0.83513 1.6359 1.7911 2.1202 2.7542 0.46594 0.92787 0.78118 1.499 0.78341 2.5696 0 0.54397-0.16408 1.3849-0.5413 1.8089-0.35804 0.40219-1.5757 1.8936-1.8896 2.3623-0.33708 0.50339-2.0122 2.3966-2.1875 2.6057-0.36429 0.43517-0.68577 0.96042-0.98138 1.4388-0.43295 0.70048-0.39505 2.0466-0.0464 2.9495 0.19618 0.50696 0.49938 0.97246 0.80704 1.4402 0.33262 0.50518 0.73391 0.99431 1.141 1.475 0.96666 1.1406 1.9632 2.1759 2.8139 3.332 0.59748 0.81239 0.84851 1.998 0.75443 2.9994-0.0914 0.97112-0.93813 1.8722-1.4478 2.6672-0.57607 0.89979-2.9 3.4836-3.3575 4.2122-0.2488 0.39639-0.99118 1.2752-1.0095 2.2343-0.0223 1.1209 0.76558 2.3096 0.76781 2.7194" stroke-width="1.417"/>
<path d="m793.56 653.44c10.002 0 30.584 0.8347 39.095-4.3563 4.405-2.688 6.644-8.003 10.173-11.062 4.97-4.305 8.954-6.095 15.261-6.782 2.891-0.314 16.41-2.018 18.65-2.745 6.218-2.019 7.596-4.325 11.869-8.398 1.986-1.893 9.374-11.56 11.465-13.418 1.961-1.744 4.641-3.836 6.943-4.829 2.935-1.264 7.179-1.608 10.505-1.929" stroke-width="1.417"/>
<path d="m826.99 679.29c13.099 0 10.837 0.42763 23.86-0.20537 5.262-0.256-3.0317-0.0967 2.1753-0.35769 5.991-0.298 9.73-1.833 15.099-4.197 1.342-0.591 2.89-1.454 3.971-2.486 0.568-0.542 6.581-6.737 8.659-9.313 2.506-3.109 13.456-18.275 16.115-20.668 2.502-2.251 7.242-4.853 10.494-5.804 8.558-2.503 4.2426-2.3978 12.65-2.4008" stroke-width="1.4173"/>
<line x1="904.48" x2="898.65" y1="632.42" y2="626.6" stroke-width="1.4173"/>
<line x1="906.12" x2="902.38" y1="610.42" y2="606.68" stroke-dasharray="3.7477, 3.0967" stroke-width="1.4173"/>
<line x1="906.26" x2="912.09" y1="621.85" y2="616.02" stroke-width="1.4173"/>
<line x1="864.84" x2="870.92" y1="637.87" y2="631.8" stroke-width="1.4173"/>
<line x1="889.5" x2="885.35" y1="627.09" y2="631.25" stroke-dasharray="4.1573, 3.4352" stroke-width="1.4173"/>
<line x1="915.17" x2="921.25" y1="622.96" y2="616.89" stroke-width="1.4173"/>
<line x1="851.41" x2="844.91" y1="653.45" y2="646.95" stroke-width="1.4173"/>
<line x1="866.86" x2="861.97" y1="650.57" y2="645.67" stroke-dasharray="4.8977, 4.047" stroke-width="1.4173"/>
<line x1="887.48" x2="880.98" y1="647.03" y2="640.53" stroke-width="1.4173"/>
<line x1="819.58" x2="826.78" y1="665.91" y2="658.71" stroke-width="1.4173"/>
<line x1="844.74" x2="838.5" y1="672.42" y2="666.18" stroke-dasharray="6.2445, 5.1598" stroke-width="1.4173"/>
<line x1="858.41" x2="865.61" y1="671.95" y2="664.75" stroke-width="1.4173"/>
</g>
</g>
</svg>
