<?xml version="1.0" encoding="UTF-8"?>
<svg width="328.44mm" height="180.45mm" version="1.1" viewBox="0 0 328.44 180.45" xmlns="http://www.w3.org/2000/svg">
<g transform="translate(60.215 -40.228)">
<g transform="matrix(.035278 0 0 -.035278 -141.04 382.42)">
<path d="m3300 9635v-65h-190v-140h-130v140h-400v-350c0-192 3-350 6-350s29 20 57 45c29 25 55 45 59 45 5 0 8 106 8 235v235h140v-130h401l-1 53c-1 28-1 58-1 65 1 8 21 12 66 12h65v-130h400v130h130v-139l33 6c17 3 48 11 67 17l35 11 3 117c4 116 3 117-20 123-13 3-104 4-203 3l-180-3-3-67-3-68h-118l-3 68-3 67-90 1-90 2-3 66c-2 50-6 66-17 66-12 0-15-15-15-65z"/>
<path d="m3300 9160c0-64 3-80 15-80s15 16 15 80-3 80-15 80-15-16-15-80z"/>
<path d="m3865 9145c-93-23-357-88-585-144-231-57-438-113-467-127-80-39-147-105-188-186-19-39-35-77-35-84 0-11-18-14-73-14-59 0-74-3-74-15s15-15 69-15h68v-860h720v-71c0-52 3-70 13-67 7 3 13 29 15 71l3 67h719v418 430c0 8 20 12 65 12 51 0 65 3 65 15s-14 15-65 15h-65v294c0 162-3 297-7 299-5 2-84-15-178-38zm-102-189c-38-51-338-395-345-395-4-1-12 18-19 42-18 71-70 156-122 203-27 24-45 44-41 44 5 1 122 30 259 64 138 35 258 64 268 65 18 1 18 0 0-23zm147-206v-160h-105c-87 0-105-3-105-15s18-15 105-15h105v-730h-580v155c0 131-2 155-15 155s-15-24-15-155v-155h-590v334c0 183 3 348 6 365l7 31h223c192 0 224 2 224 15s-31 15-220 15h-220l19 39c46 89 144 151 240 151 73 0 120-16 177-59 106-80 139-224 80-346l-29-58 41-39c23-21 47-38 54-38 7 1 143 151 303 335 159 184 291 335 292 335 2 0 3-72 3-160z"/>
<path d="m4666 9162c-2-4 45-128 106-275l111-268 49 3 50 3 109 265c60 145 109 268 109 273 0 4-25 7-56 6-66-3-52 19-149-232-32-82-61-145-66-140-4 4-39 89-78 188l-71 180-54 2c-31 1-57-1-60-5z"/>
<path d="m5286 9163c-3-4-6-127-6-275v-269l58 3 57 3v540l-51 2c-29 1-54-1-58-4z"/>
<path d="m5530 8896v-276h380v100h-270l-2 223-3 222-52 3-53 3z"/>
<path d="m6e3 8895v-275h110v170c0 94 3 170 8 170 4-1 66-77 137-170l130-170h95l-2 273-3 272-52 3-53 3v-171c0-106-4-169-10-165-5 3-66 79-135 169l-126 162-50 3-49 2z"/>
<path d="m6610 8896v-276h110l-2 273-3 272-52 3-53 3z"/>
<path d="m7037 9163c-4-7-215-484-234-530-4-10 10-13 53-13h59l26 63 25 62 117 3 118 3 29-66 29-65h56c30 0 55 4 55 8s-32 80-71 167c-38 88-91 208-116 268l-46 107h-48c-26 0-50-3-52-7zm120-310c-3-2-36-3-75-1l-70 3 36 84 37 84 38-83c21-45 36-84 34-87z"/>
<path d="m7424 9156c-3-9-4-95-2-193 5-198 13-234 67-289 88-89 281-79 354 18 41 56 47 91 47 290v189l-52-3-53-3-5-190c-5-201-10-221-57-246-52-28-147-6-170 39-4 9-10 103-13 207l-5 190-53 3c-40 2-54-1-58-12z"/>
<path d="m8095 9156c-71-32-110-108-94-186 10-49 65-96 136-115 103-28 142-46 148-66 26-79-99-102-202-37l-47 30-33-38-33-39 23-19c84-71 242-94 323-47 74 42 106 140 69 211-19 38-83 74-165 95-86 22-110 38-110 75 0 57 88 69 171 23 27-14 50-24 52-22s15 21 30 41l27 37-29 21c-68 48-199 66-266 36z"/>
<path d="m4710 8106v-276h110v168l88 4c156 7 226 70 220 198-4 81-31 123-97 154-38 17-70 21-183 24l-138 4zm293 133c26-32 22-81-9-110-21-20-38-24-100-27l-74-4v171l48 3c66 4 114-7 135-33z"/>
<path d="m5220 8103v-273l192 2 193 3 2 48 2 47h-279l-2 222-3 223-52 1-53 1z"/>
<path d="m5871 8358c-5-13-57-132-115-266s-106-247-106-252c0-6 24-10 54-10h54l25 63 25 62 119 3 120 3 27-66 28-65h117l-29 68c-16 37-69 159-118 272l-90 205-51 3c-45 3-52 1-60-20zm98-213c17-41 31-77 31-80s-31-5-70-5c-40 0-70 4-70 10 0 17 62 150 70 150 4 0 21-34 39-75z"/>
<path d="m6295 8367c-3-7-4-129-3-272l3-260 53-3 52-3v170c0 94 4 171 9 171 4 0 68-76 140-170l132-170h89l-2 273-3 272h-100l-10-336-130 168-131 168-47 3c-31 1-49-2-52-11z"/>
<path d="m6970 8114c-63-145-116-269-118-274-2-6 21-10 52-10h56l29 65 30 65h232l58-130h57c49 0 55 2 50 18-4 9-57 133-119 275l-112 257h-100zm229-26 10-28h-75c-40 0-74 2-74 4s12 30 26 62c14 33 31 70 36 84 10 24 12 23 39-35 15-33 32-72 38-87z"/>
<path d="m7561 8358c-55-30-81-75-81-145 0-79 36-115 149-150 117-36 141-49 141-77 0-69-120-81-212-21-21 14-40 25-42 25s-18-18-35-39l-31-39 47-31c168-112 383-49 383 111 0 84-51 130-181 163-85 22-109 38-109 75 0 56 85 68 171 24 28-14 52-24 53-22 57 80 57 87-6 119-31 16-66 24-123 27-70 3-86 1-124-20z"/>
<path d="m2294 7166c-3-8-4-25-2-38l3-23h9300l3 38 3 37h-4651c-4019 0-4651-2-4656-14z"/>
<path d="m10147 6713c-4-3-7-33-7-65 0-49-3-58-17-58-10 0-28-3-40-6-20-5-23 0-34 56-7 36-16 59-23 57-6-2-60-21-121-41-60-20-115-40-121-44s-34-184-63-412c-29-223-59-451-67-506-24-173-45-143 198-288l212-126h518l211 127c117 69 213 127 215 128 1 1-11 105-27 231-31 233-57 437-67 509-2 22-13 104-23 183-9 78-22 146-27 151s-64 27-131 49c-135 45-125 47-139-31-7-44-17-50-59-39-19 6-30 15-31 28-1 10-2 38-3 62l-1 42h-173c-96 0-177-3-180-7zm201-132 52-1v-55c0-30 2-55 5-55s58-12 121-26c64-14 119-23 122-19 4 4 12 28 17 53 9 42 13 47 35 44 14-2 28-7 31-10 5-6 110-846 109-874 0-4-68-48-151-97l-150-91h-433l-152 92c-141 84-152 93-149 117 3 14 9 69 15 121 13 108 10 86 50 411 16 135 30 257 30 270 0 31 18 55 47 63 19 6 23 1 34-49l12-56 36 6c20 3 77 16 126 28l90 22 1 50c1 28 2 53 3 56s11 5 24 3c12-1 46-3 75-3z"/>
<path d="m10080 4960c0-47 2-50 25-50h25v-321l58 3 57 3 6 186 101-95c56-53 110-96 120-96 17 0 18 13 18 205v205h-110v-192l-106 101c-102 96-109 101-150 101h-44z"/>
<path d="m11344 4991c-23-10-49-29-58-42-21-30-21-112 0-144 17-27 81-55 124-55 67 0 104-36 61-60-31-16-69-12-91 10-15 15-33 20-70 20-58 0-63-13-30-67 28-47 73-67 151-68 55 0 72 4 107 27 52 35 71 86 52 142-15 48-41 63-130 80-82 16-100 28-84 54 16 25 79 28 96 4 9-13 27-19 61-20 45-2 47-1 47 26 0 15-7 38-16 51-22 31-90 61-139 61-22 0-59-9-81-19z"/>
<path d="m9041 4993c0-5 40-96 88-203 83-185 89-195 115-195s32 9 111 190c47 105 85 196 85 203 0 9-14 12-52 10l-53-3-44-108c-24-59-47-104-51-100-3 4-26 54-49 111l-43 102h-54c-30 0-54-3-53-7z"/>
<path d="m9500 4955c0-41 2-45 25-45h25v-220h-25c-23 0-25-3-25-50v-50h211l-3 48c-3 40-6 47-25 50-13 2-23 6-23 10-1 4-1 52-2 107l-1 100 26 3c25 3 27 7 27 48v44h-210z"/>
<path d="m9790 4795v-205h260v100h-150v310h-110z"/>
<path d="m10580 4955c0-38 3-45 20-45 11 0 20-6 21-12 0-7 0-56 1-108 0-91-1-95-24-100-19-5-23-13-26-53l-3-48 216 6v45c0 42-2 45-27 48l-28 3v219h25c23 0 25 4 25 45v45h-200z"/>
<path d="m10862 4841c3-143 5-163 24-188 63-87 232-86 285 1 16 27 19 52 19 189v157h-100v-138c0-156-7-175-59-175-58 0-63 14-62 172l2 141h-112z"/>
</g>
</g>
</svg>
