<?xml version="1.0" encoding="UTF-8" standalone="no" ?>
<!DOCTYPE svg PUBLIC "-//W3C//DTD SVG 1.1//EN" "http://www.w3.org/Graphics/SVG/1.1/DTD/svg11.dtd">
<svg xmlns="http://www.w3.org/2000/svg" xmlns:xlink="http://www.w3.org/1999/xlink" version="1.1" width="512" height="512" viewBox="0 0 512 512" xml:space="preserve">
<desc>Created with Fabric.js 4.2.0</desc>
<defs>
</defs>
<rect x="0" y="0" width="100%" height="100%" fill="transparent"></rect>
<g transform="matrix(0 0 0 0 0 0)" id="011a848d-5980-4c67-8dae-4127cc0439b2"  >
</g>
<g transform="matrix(1 0 0 1 256 256)" id="ece07c3e-7e66-45b5-865b-bf7b0485dd1f"  >
<rect style="stroke: none; stroke-width: 1; stroke-dasharray: none; stroke-linecap: butt; stroke-dashoffset: 0; stroke-linejoin: miter; stroke-miterlimit: 4; fill: rgb(255,255,255); fill-opacity: 0; fill-rule: nonzero; opacity: 1;" vector-effect="non-scaling-stroke"  x="-256" y="-256" rx="0" ry="0" width="512" height="512" />
</g>
<g transform="matrix(7.17 0 0 7.17 256 256)" id="32e7c556-da37-4610-8a6c-72d603abd107"  >
<circle style="stroke: rgb(0,0,0); stroke-width: 1; stroke-dasharray: none; stroke-linecap: butt; stroke-dashoffset: 0; stroke-linejoin: miter; stroke-miterlimit: 4; fill: rgb(210,207,255); fill-rule: nonzero; opacity: 1;" vector-effect="non-scaling-stroke"  cx="0" cy="0" r="35" />
</g>
<g transform="matrix(12.42 0 0 12.42 256 256)" id="🎨-Color"  >
<path style="stroke: rgb(0,0,0); stroke-width: 0; stroke-dasharray: none; stroke-linecap: butt; stroke-dashoffset: 0; stroke-linejoin: miter; stroke-miterlimit: 4; fill: rgb(33,33,33); fill-rule: nonzero; opacity: 1;" vector-effect="non-scaling-stroke"  transform=" translate(-14, -14.5)" d="M 4 16 L 15 16.001 C 16.0538182 16.001 16.9181157 16.8164855 16.9945109 17.8516842 L 17 18.001 L 17 20.5 C 16.999 24.7 12.713 26 9.5 26 C 6.35126 26 2.1710504 24.75148 2.00510151 20.7485328 L 2 20.5 L 2 18 C 2 16.9461818 2.81639669 16.0818843 3.85080841 16.0054891 L 4 16 Z M 17.22 16.001 L 24 16 C 25.0538182 16 25.9181157 16.8163967 25.9945109 17.8508084 L 26 18 L 26 20 C 25.999 23.759 22.57 25 20 25 C 18.942 25 17.741 24.785 16.691 24.275 C 17.4432667 23.3808667 17.9315867 22.2428222 17.9933526 20.8112714 L 18 20.5 L 18 18.001 C 18 17.2991818 17.7512397 16.6601736 17.3461307 16.1500909 L 17.22 16.001 L 24 16 L 17.22 16.001 Z M 9.5 3 C 12.537 3 15 5.463 15 8.5 C 15 11.537 12.537 14 9.5 14 C 6.463 14 4 11.537 4 8.5 C 4 5.463 6.463 3 9.5 3 Z M 20.5 5 C 22.985 5 25 7.015 25 9.5 C 25 11.985 22.985 14 20.5 14 C 18.015 14 16 11.985 16 9.5 C 16 7.015 18.015 5 20.5 5 Z" stroke-linecap="round" />
</g>
</svg>