<?xml version="1.0" encoding="UTF-8" standalone="no" ?>
<!DOCTYPE svg PUBLIC "-//W3C//DTD SVG 1.1//EN" "http://www.w3.org/Graphics/SVG/1.1/DTD/svg11.dtd">
<svg xmlns="http://www.w3.org/2000/svg" xmlns:xlink="http://www.w3.org/1999/xlink" version="1.1" width="512" height="512" viewBox="0 0 512 512" xml:space="preserve">
<desc>Created with Fabric.js 4.2.0</desc>
<defs>
</defs>
<rect x="0" y="0" width="100%" height="100%" fill="transparent"></rect>
<g transform="matrix(0 0 0 0 0 0)" id="011a848d-5980-4c67-8dae-4127cc0439b2"  >
</g>
<g transform="matrix(1 0 0 1 256 256)" id="ece07c3e-7e66-45b5-865b-bf7b0485dd1f"  >
<rect style="stroke: none; stroke-width: 1; stroke-dasharray: none; stroke-linecap: butt; stroke-dashoffset: 0; stroke-linejoin: miter; stroke-miterlimit: 4; fill: rgb(255,255,255); fill-opacity: 0; fill-rule: nonzero; opacity: 1;" vector-effect="non-scaling-stroke"  x="-256" y="-256" rx="0" ry="0" width="512" height="512" />
</g>
<g transform="matrix(7.17 0 0 7.17 256 256)" id="32e7c556-da37-4610-8a6c-72d603abd107"  >
<circle style="stroke: rgb(0,0,0); stroke-width: 1; stroke-dasharray: none; stroke-linecap: butt; stroke-dashoffset: 0; stroke-linejoin: miter; stroke-miterlimit: 4; fill: rgb(239,242,125); fill-rule: nonzero; opacity: 1;" vector-effect="non-scaling-stroke"  cx="0" cy="0" r="35" />
</g>
<g transform="matrix(0.68 0 0 0.68 256 256)"  >
<path style="stroke: rgb(0,0,0); stroke-width: 0; stroke-dasharray: none; stroke-linecap: butt; stroke-dashoffset: 0; stroke-linejoin: miter; stroke-miterlimit: 4; fill: rgb(0,0,0); fill-rule: nonzero; opacity: 1;" vector-effect="non-scaling-stroke"  transform=" translate(-256, -256)" d="M 494.222 443.794 L 460.469 443.794 L 460.469 229.309 C 460.469 223.453 457.585 217.97299999999998 452.759 214.657 L 346.57500000000005 141.699 L 346.57500000000005 88.996 C 346.57500000000005 79.178 338.61500000000007 71.21799999999999 328.797 71.21799999999999 L 273.77700000000004 71.21799999999999 L 273.77700000000004 50.428 C 273.77700000000004 40.61 265.81700000000006 32.65 255.99900000000005 32.65 C 246.18100000000004 32.65 238.22100000000006 40.61 238.22100000000006 50.428 L 238.22100000000006 71.217 L 183.20100000000005 71.217 C 173.38300000000004 71.217 165.42300000000006 79.17699999999999 165.42300000000006 88.995 L 165.42300000000006 141.698 L 59.241 214.656 C 54.415 217.972 51.531 223.452 51.531 229.308 L 51.531 443.793 L 17.778 443.793 C 7.96 443.794 0 451.754 0 461.572 C 0 471.39 7.96 479.35 17.778 479.35 L 494.22200000000004 479.35 C 504.04 479.35 512 471.39000000000004 512 461.572 C 512 451.75399999999996 504.04 443.794 494.222 443.794 z M 291.314 437.868 L 220.68600000000004 437.868 L 220.68600000000004 321.922 C 220.68600000000004 302.449 236.52700000000004 286.608 256.00000000000006 286.608 C 275.47300000000007 286.608 291.3140000000001 302.449 291.3140000000001 321.922 L 291.3140000000001 437.868 z M 349.81 437.868 L 326.87 437.868 L 326.87 321.922 C 326.87 282.84400000000005 295.079 251.05300000000003 256.001 251.05300000000003 C 216.92299999999997 251.05300000000003 185.13199999999998 282.84400000000005 185.13199999999998 321.922 L 185.13199999999998 437.867 L 162.19199999999998 437.867 L 162.19199999999998 315.987 C 162.19199999999998 264.26000000000005 204.27599999999998 222.17700000000002 256.00199999999995 222.17700000000002 C 307.72799999999995 222.17700000000002 349.81199999999995 264.261 349.81199999999995 315.987 L 349.81199999999995 437.868 z M 424.914 437.868 L 385.366 437.868 L 385.366 315.988 C 385.366 244.655 327.33299999999997 186.623 256.001 186.623 C 184.66899999999998 186.623 126.63599999999997 244.656 126.63599999999997 315.988 L 126.63599999999997 437.869 L 87.086 437.869 L 87.086 238.663 L 193.269 165.705 C 198.095 162.389 200.979 156.90900000000002 200.979 151.05300000000003 L 200.979 106.77300000000002 L 311.02 106.77300000000002 L 311.02 151.05300000000003 C 311.02 156.90900000000002 313.904 162.38900000000004 318.72999999999996 165.705 L 424.914 238.663 L 424.914 437.868 z" stroke-linecap="round" />
</g>
</svg>