<?xml version="1.0" encoding="UTF-8" standalone="no" ?>
<!DOCTYPE svg PUBLIC "-//W3C//DTD SVG 1.1//EN" "http://www.w3.org/Graphics/SVG/1.1/DTD/svg11.dtd">
<svg xmlns="http://www.w3.org/2000/svg" xmlns:xlink="http://www.w3.org/1999/xlink" version="1.1" width="512" height="512" viewBox="0 0 512 512" xml:space="preserve">
<desc>Created with Fabric.js 4.2.0</desc>
<defs>
</defs>
<rect x="0" y="0" width="100%" height="100%" fill="transparent"></rect>
<g transform="matrix(0 0 0 0 0 0)" id="011a848d-5980-4c67-8dae-4127cc0439b2"  >
</g>
<g transform="matrix(1 0 0 1 256 256)" id="ece07c3e-7e66-45b5-865b-bf7b0485dd1f"  >
<rect style="stroke: none; stroke-width: 1; stroke-dasharray: none; stroke-linecap: butt; stroke-dashoffset: 0; stroke-linejoin: miter; stroke-miterlimit: 4; fill: rgb(255,255,255); fill-opacity: 0; fill-rule: nonzero; opacity: 1;" vector-effect="non-scaling-stroke"  x="-256" y="-256" rx="0" ry="0" width="512" height="512" />
</g>
<g transform="matrix(7.17 0 0 7.17 256 256)" id="32e7c556-da37-4610-8a6c-72d603abd107"  >
<circle style="stroke: rgb(0,0,0); stroke-width: 1; stroke-dasharray: none; stroke-linecap: butt; stroke-dashoffset: 0; stroke-linejoin: miter; stroke-miterlimit: 4; fill: rgb(225,250,211); fill-rule: nonzero; opacity: 1;" vector-effect="non-scaling-stroke"  cx="0" cy="0" r="35" />
</g>
<g transform="matrix(0.64 0 0 0.64 256 256)"  >
<g style="" vector-effect="non-scaling-stroke"   >
		<g transform="matrix(1 0 0 1 0 176.76)"  >
<polygon style="stroke: none; stroke-width: 1; stroke-dasharray: none; stroke-linecap: butt; stroke-dashoffset: 0; stroke-linejoin: miter; stroke-miterlimit: 4; fill: rgb(0,0,0); fill-rule: nonzero; opacity: 1;" vector-effect="non-scaling-stroke"  points="219.43,-6.1 219.43,-54.86 -219.43,-54.86 -219.43,-6.1 -256,-6.1 -256,54.86 256,54.86 256,-6.1 " />
</g>
		<g transform="matrix(1 0 0 1 0 12.19)"  >
<rect style="stroke: none; stroke-width: 1; stroke-dasharray: none; stroke-linecap: butt; stroke-dashoffset: 0; stroke-linejoin: miter; stroke-miterlimit: 4; fill: rgb(0,0,0); fill-rule: nonzero; opacity: 1;" vector-effect="non-scaling-stroke"  x="-36.57" y="-73.145" rx="0" ry="0" width="73.14" height="146.29" />
</g>
		<g transform="matrix(1 0 0 1 158.47 12.19)"  >
<rect style="stroke: none; stroke-width: 1; stroke-dasharray: none; stroke-linecap: butt; stroke-dashoffset: 0; stroke-linejoin: miter; stroke-miterlimit: 4; fill: rgb(0,0,0); fill-rule: nonzero; opacity: 1;" vector-effect="non-scaling-stroke"  x="-36.57" y="-73.145" rx="0" ry="0" width="73.14" height="146.29" />
</g>
		<g transform="matrix(1 0 0 1 -158.48 12.19)"  >
<rect style="stroke: none; stroke-width: 1; stroke-dasharray: none; stroke-linecap: butt; stroke-dashoffset: 0; stroke-linejoin: miter; stroke-miterlimit: 4; fill: rgb(0,0,0); fill-rule: nonzero; opacity: 1;" vector-effect="non-scaling-stroke"  x="-36.57" y="-73.145" rx="0" ry="0" width="73.14" height="146.29" />
</g>
		<g transform="matrix(1 0 0 1 0 -164.57)"  >
<polygon style="stroke: none; stroke-width: 1; stroke-dasharray: none; stroke-linecap: butt; stroke-dashoffset: 0; stroke-linejoin: miter; stroke-miterlimit: 4; fill: rgb(0,0,0); fill-rule: nonzero; opacity: 1;" vector-effect="non-scaling-stroke"  points="0,-67.05 -256,18.29 -256,67.05 256,67.05 256,18.29 " />
</g>
</g>
</g>
</svg>