<?xml version="1.0" encoding="UTF-8" standalone="no" ?>
<!DOCTYPE svg PUBLIC "-//W3C//DTD SVG 1.1//EN" "http://www.w3.org/Graphics/SVG/1.1/DTD/svg11.dtd">
<svg xmlns="http://www.w3.org/2000/svg" xmlns:xlink="http://www.w3.org/1999/xlink" version="1.1" width="512" height="512" viewBox="0 0 512 512" xml:space="preserve">
<desc>Created with Fabric.js 4.2.0</desc>
<defs>
</defs>
<rect x="0" y="0" width="100%" height="100%" fill="transparent"></rect>
<g transform="matrix(1 0 0 1 256 256)" id="ece07c3e-7e66-45b5-865b-bf7b0485dd1f"  >
<rect style="stroke: none; stroke-width: 1; stroke-dasharray: none; stroke-linecap: butt; stroke-dashoffset: 0; stroke-linejoin: miter; stroke-miterlimit: 4; fill: rgb(255,255,255); fill-opacity: 0; fill-rule: nonzero; opacity: 1;" vector-effect="non-scaling-stroke"  x="-256" y="-256" rx="0" ry="0" width="512" height="512" />
</g>
<g transform="matrix(0 0 0 0 0 0)" id="011a848d-5980-4c67-8dae-4127cc0439b2"  >
</g>
<g transform="matrix(7.17 0 0 7.17 256 256)" id="32e7c556-da37-4610-8a6c-72d603abd107"  >
<circle style="stroke: rgb(0,0,0); stroke-width: 1; stroke-dasharray: none; stroke-linecap: butt; stroke-dashoffset: 0; stroke-linejoin: miter; stroke-miterlimit: 4; fill: rgb(167,255,163); fill-rule: nonzero; opacity: 1;" vector-effect="non-scaling-stroke"  cx="0" cy="0" r="35" />
</g>
<g transform="matrix(6.92 0 0 6.92 256 256)" id="465e0572-bf93-4743-81ab-fb561c37d65b"  >
<path style="stroke: rgb(0,0,0); stroke-width: 0; stroke-dasharray: none; stroke-linecap: butt; stroke-dashoffset: 0; stroke-linejoin: miter; stroke-miterlimit: 4; fill: rgb(0,0,0); fill-rule: nonzero; opacity: 1;" vector-effect="non-scaling-stroke"  transform=" translate(-25, -25)" d="M 21.211 6 C 8.578999999999999 6 1 16.133 1 21.2 C 1 26.267 3.526 30.067 8.579 30.067 C 13.632000000000001 30.067 16.159 31.333 16.159 35.133 C 16.159 40.199000000000005 19.948 43.999 25.000999999999998 43.999 C 41.423 43.999 49.001 35.133 49.001 26.267000000000003 C 49 11.067000000000004 36.366 6.0000000000000036 21.211 6.0000000000000036 z M 18.052999999999997 11.067 C 19.796999999999997 11.067 21.211 12.485 21.211 14.233 C 21.211 15.983 19.796999999999997 17.4 18.052999999999997 17.4 C 16.308999999999997 17.4 14.894999999999998 15.982 14.894999999999998 14.232999999999999 C 14.894999999999998 12.485 16.308999999999997 11.066999999999998 18.052999999999997 11.066999999999998 z M 28.156999999999996 11.067 C 29.900999999999996 11.067 31.314999999999998 12.485 31.314999999999998 14.233 C 31.314999999999998 15.983 29.900999999999996 17.4 28.156999999999996 17.4 C 26.413999999999998 17.4 24.999999999999996 15.982 24.999999999999996 14.232999999999999 C 24.999999999999996 12.485 26.413999999999998 11.066999999999998 28.156999999999996 11.066999999999998 z M 38.263 16.133 C 40.007999999999996 16.133 41.422 17.55 41.422 19.299999999999997 C 41.422 21.049999999999997 40.007999999999996 22.465999999999998 38.263 22.465999999999998 C 36.519 22.465999999999998 35.105999999999995 21.048999999999996 35.105999999999995 19.299999999999997 C 35.105 17.551 36.51899999999999 16.132999999999996 38.26299999999999 16.132999999999996 z M 9.210999999999999 18.666999999999998 C 10.954999999999998 18.666999999999998 12.367999999999999 20.084 12.367999999999999 21.831999999999997 C 12.367999999999999 23.581999999999997 10.953999999999999 24.998999999999995 9.210999999999999 24.998999999999995 C 7.467999999999998 24.998999999999995 6.052999999999999 23.580999999999996 6.052999999999999 21.831999999999994 C 6.052999999999999 20.083999999999993 7.466999999999999 18.666999999999994 9.210999999999999 18.666999999999994 z M 25 31.333 C 27.093 31.333 28.789 33.033 28.789 35.134 C 28.789 37.232 27.093 38.933 25 38.933 C 22.907 38.933 21.211 37.232 21.211 35.134 C 21.211 33.033 22.907 31.333 25 31.333 z" stroke-linecap="round" />
</g>
</svg>